<svg width="576" height="547" viewBox="0 0 576 547" fill="none" xmlns="http://www.w3.org/2000/svg">
<g opacity="0.3">
<circle cx="392.025" cy="408.451" r="109.905" stroke="#D99A70" stroke-width="2"/>
<circle cx="481.971" cy="344.703" r="6.11285" fill="#D99A70"/>
<circle cx="307.318" cy="479.185" r="6.11285" fill="#D99A70"/>
<path opacity="0.6" d="M551.756 287.068C551.997 290.003 554.573 292.187 557.509 291.946C560.444 291.705 562.628 289.129 562.387 286.193C562.145 283.258 559.57 281.074 556.634 281.315C553.698 281.557 551.514 284.132 551.756 287.068ZM220.427 545.99L221.037 546.782L557.682 287.423L557.071 286.631L556.461 285.838L219.817 545.198L220.427 545.99Z" fill="#D99A70"/>
</g>
<path d="M348.361 237.291C348.361 298.542 298.708 348.196 237.457 348.196C176.206 348.196 126.552 298.542 126.552 237.291C126.552 176.04 176.206 126.387 237.457 126.387C298.708 126.387 348.361 176.04 348.361 237.291Z" stroke="url(#paint0_linear_156_5408)" stroke-width="2"/>
<path d="M395.518 237.291C395.518 324.586 324.751 395.352 237.457 395.352C150.162 395.352 79.396 324.586 79.396 237.291C79.396 149.997 150.162 79.2305 237.457 79.2305C324.751 79.2305 395.518 149.997 395.518 237.291Z" stroke="url(#paint1_linear_156_5408)" stroke-width="2"/>
<path d="M432.195 237.291C432.195 344.842 345.008 432.029 237.457 432.029C129.906 432.029 42.719 344.842 42.719 237.291C42.719 129.74 129.906 42.5534 237.457 42.5534C345.008 42.5534 432.195 129.74 432.195 237.291Z" stroke="url(#paint2_linear_156_5408)" stroke-width="2"/>
<path d="M473.238 237.291C473.238 367.51 367.675 473.072 237.457 473.072C107.238 473.072 1.67554 367.51 1.67554 237.291C1.67554 107.073 107.238 1.50996 237.457 1.50996C367.675 1.50996 473.238 107.073 473.238 237.291Z" stroke="url(#paint3_linear_156_5408)" stroke-width="2"/>
<circle cx="430" cy="102" r="8.5" fill="#D99A70" stroke="url(#paint4_linear_156_5408)"/>
<circle cx="88" cy="184" r="7.5" fill="#D99A70" stroke="url(#paint5_linear_156_5408)"/>
<path d="M138.684 296.673C138.684 299.619 141.072 302.007 144.018 302.007C146.963 302.007 149.351 299.619 149.351 296.673C149.351 293.728 146.963 291.34 144.018 291.34C141.072 291.34 138.684 293.728 138.684 296.673ZM237.893 224.192L238.88 224.359L237.893 224.192ZM315.52 164.81C315.52 167.756 317.908 170.144 320.854 170.144C323.799 170.144 326.187 167.756 326.187 164.81C326.187 161.865 323.799 159.477 320.854 159.477C317.908 159.477 315.52 161.865 315.52 164.81ZM144.018 296.673L143.784 297.645C153.68 300.026 174.333 300.007 194.073 290.256C213.881 280.472 232.713 260.916 238.88 224.359L237.893 224.192L236.907 224.026C230.848 259.949 212.421 278.962 193.187 288.463C173.885 297.997 153.713 297.977 144.252 295.701L144.018 296.673ZM237.893 224.192L238.88 224.359C241.252 210.294 246.906 194.989 259.316 183.546C271.707 172.121 290.967 164.421 320.807 165.809L320.854 164.81L320.9 163.811C290.66 162.405 270.833 170.206 257.961 182.075C245.108 193.926 239.322 209.71 236.907 224.026L237.893 224.192Z" fill="#D99A70"/>
<defs>
<linearGradient id="paint0_linear_156_5408" x1="237.457" y1="1.50996" x2="237.457" y2="473.072" gradientUnits="userSpaceOnUse">
<stop offset="0.480769" stop-color="#D99A70"/>
<stop offset="1" stop-color="#73523B" stop-opacity="0"/>
</linearGradient>
<linearGradient id="paint1_linear_156_5408" x1="237.457" y1="1.50996" x2="237.457" y2="473.072" gradientUnits="userSpaceOnUse">
<stop offset="0.480769" stop-color="#D99A70"/>
<stop offset="1" stop-color="#73523B" stop-opacity="0"/>
</linearGradient>
<linearGradient id="paint2_linear_156_5408" x1="237.457" y1="1.50996" x2="237.457" y2="473.072" gradientUnits="userSpaceOnUse">
<stop offset="0.480769" stop-color="#D99A70"/>
<stop offset="1" stop-color="#73523B" stop-opacity="0"/>
</linearGradient>
<linearGradient id="paint3_linear_156_5408" x1="237.457" y1="1.50996" x2="237.457" y2="473.072" gradientUnits="userSpaceOnUse">
<stop offset="0.480769" stop-color="#D99A70"/>
<stop offset="1" stop-color="#73523B" stop-opacity="0"/>
</linearGradient>
<linearGradient id="paint4_linear_156_5408" x1="430" y1="93" x2="430" y2="111" gradientUnits="userSpaceOnUse">
<stop offset="0.480769" stop-color="#D99A70"/>
<stop offset="1" stop-color="#73523B" stop-opacity="0"/>
</linearGradient>
<linearGradient id="paint5_linear_156_5408" x1="88" y1="176" x2="88" y2="192" gradientUnits="userSpaceOnUse">
<stop offset="0.480769" stop-color="#D99A70"/>
<stop offset="1" stop-color="#73523B" stop-opacity="0"/>
</linearGradient>
</defs>
</svg>
